# Blender v3.1.2 OBJ File: ''
# www.blender.org
mtllib test2.mtl
o Circle
v 0.000000 0.164063 -0.903895
v -0.638071 0.333333 -0.638071
v -0.902369 0.166667 0.000000
v -0.638071 0.333333 0.638071
v 0.000000 0.164063 0.903895
v 0.638071 0.333333 0.638071
v 0.902369 0.166667 0.000000
v 0.638071 0.333333 -0.638071
v -0.344924 0.250000 -0.832720
v -0.832720 0.250000 -0.344924
v -0.832720 0.250000 0.344924
v -0.344924 0.250000 0.832720
v 0.344924 0.250000 0.832720
v 0.832720 0.250000 0.344924
v 0.832720 0.250000 -0.344924
v 0.344924 0.250000 -0.832720
v -0.086715 0.250000 0.346842
v -0.000000 0.129630 0.000000
v -0.100496 0.370370 0.653412
v 0.086715 0.250000 -0.346842
v 0.100496 0.370370 -0.653412
v 0.241681 0.185764 0.233545
v -0.336035 0.314236 0.461337
v -0.013889 0.314236 0.791619
v -0.241681 0.185764 -0.233545
v 0.336035 0.314236 -0.461337
v 0.013889 0.314236 -0.791619
vt 0.000000 0.000000
vt 0.000000 0.000000
vt 0.000000 0.000000
vt 0.000000 0.000000
vt 0.000000 0.000000
vt 0.000000 0.000000
vt 0.000000 0.000000
vt 0.000000 0.000000
vt 0.000000 0.000000
vt 0.000000 0.000000
vt 0.000000 0.000000
vt 0.000000 0.000000
vt 0.000000 0.000000
vt 0.000000 0.000000
vt 0.000000 0.000000
vt 0.000000 0.000000
vt 0.000000 0.000000
vt 0.000000 0.000000
vt 0.000000 0.000000
vt 0.000000 0.000000
vt 0.000000 0.000000
vt 0.000000 0.000000
vt 0.000000 0.000000
vt 0.000000 0.000000
vt 0.000000 0.000000
vt 0.000000 0.000000
vt 0.000000 0.000000
vn 0.0466 -0.9523 0.3017
vn -0.0389 -0.9470 0.3189
vn 0.0402 -0.9802 0.1940
vn 0.0742 -0.9727 0.2200
vn -0.0391 -0.9307 0.3637
vn 0.0612 -0.9758 0.2101
vn -0.0157 -0.5996 -0.8001
vn 0.0739 -0.8717 -0.4845
vn -0.0540 -0.8860 -0.4606
vn -0.0466 -0.9523 -0.3017
vn 0.0389 -0.9470 -0.3189
vn -0.0402 -0.9802 -0.1940
vn -0.0742 -0.9727 -0.2200
vn 0.0391 -0.9307 -0.3637
vn -0.0612 -0.9758 -0.2101
vn 0.0540 -0.8860 0.4606
vn 0.0157 -0.5996 0.8001
vn -0.0739 -0.8717 0.4845
vn -0.0481 -0.9223 0.3835
vn -0.0787 -0.9477 0.3092
vn 0.0589 -0.9676 0.2457
vn -0.0655 -0.9243 0.3760
vn -0.0734 -0.9294 0.3616
vn 0.0721 -0.9710 0.2281
vn 0.0165 -0.5977 -0.8015
vn 0.1188 -0.8917 -0.4367
vn -0.1348 -0.9446 -0.2992
vn 0.0481 -0.9223 -0.3835
vn 0.0787 -0.9477 -0.3092
vn -0.0589 -0.9676 -0.2457
vn 0.0655 -0.9243 -0.3760
vn 0.0734 -0.9294 -0.3616
vn -0.0721 -0.9710 -0.2281
vn 0.1348 -0.9446 0.2992
vn -0.0165 -0.5977 0.8015
vn -0.1188 -0.8917 0.4367
usemtl None
s off
f 6/1/1 22/2/1 14/3/1
f 18/4/2 17/5/2 3/6/2
f 7/7/3 22/2/3 18/4/3
f 3/6/4 23/8/4 11/9/4
f 19/10/5 17/5/5 6/1/5
f 4/11/6 23/8/6 19/10/6
f 5/12/7 24/13/7 13/14/7
f 19/10/8 12/15/8 4/11/8
f 13/14/9 19/10/9 6/1/9
f 2/16/10 25/17/10 10/18/10
f 18/4/11 20/19/11 7/7/11
f 3/6/12 25/17/12 18/4/12
f 7/7/13 26/20/13 15/21/13
f 21/22/14 20/19/14 2/16/14
f 8/23/15 26/20/15 21/22/15
f 9/24/16 21/22/16 2/16/16
f 1/25/17 27/26/17 9/24/17
f 21/22/18 16/27/18 8/23/18
f 6/1/19 17/5/19 22/2/19
f 18/4/20 22/2/20 17/5/20
f 7/7/21 14/3/21 22/2/21
f 3/6/22 17/5/22 23/8/22
f 19/10/23 23/8/23 17/5/23
f 4/11/24 11/9/24 23/8/24
f 5/12/25 12/15/25 24/13/25
f 19/10/26 24/13/26 12/15/26
f 13/14/27 24/13/27 19/10/27
f 2/16/28 20/19/28 25/17/28
f 18/4/29 25/17/29 20/19/29
f 3/6/30 10/18/30 25/17/30
f 7/7/31 20/19/31 26/20/31
f 21/22/32 26/20/32 20/19/32
f 8/23/33 15/21/33 26/20/33
f 9/24/34 27/26/34 21/22/34
f 1/25/35 16/27/35 27/26/35
f 21/22/36 27/26/36 16/27/36
